<mxfile host="Electron" agent="Mozilla/5.0 (X11; Linux x86_64) AppleWebKit/537.36 (KHTML, like Gecko) draw.io/26.0.16 Chrome/132.0.6834.196 Electron/34.2.0 Safari/537.36" version="26.0.16">
  <diagram name="Page-1" id="s34llh__NXhLMa71MwE4">
    <mxGraphModel dx="2666" dy="677" grid="1" gridSize="10" guides="1" tooltips="1" connect="1" arrows="1" fold="1" page="1" pageScale="1" pageWidth="827" pageHeight="1169" math="0" shadow="0">
      <root>
        <mxCell id="0" />
        <mxCell id="1" parent="0" />
        <mxCell id="NtZi-PJopCHLtHp6JKRj-137" value="" style="group;strokeColor=#6c8ebf;fillColor=#dae8fc;recursiveResize=0;" vertex="1" connectable="0" parent="1">
          <mxGeometry x="274" y="380" width="410" height="870" as="geometry" />
        </mxCell>
        <mxCell id="NtZi-PJopCHLtHp6JKRj-139" value="Grupo de passeio" style="text;html=1;align=center;verticalAlign=middle;resizable=0;points=[];autosize=1;strokeColor=none;fillColor=none;fontSize=16;" vertex="1" parent="NtZi-PJopCHLtHp6JKRj-137">
          <mxGeometry width="150" height="30" as="geometry" />
        </mxCell>
        <mxCell id="NtZi-PJopCHLtHp6JKRj-140" value="..." style="rounded=0;whiteSpace=wrap;html=1;fillColor=#ffe6cc;strokeColor=#d79b00;" vertex="1" parent="NtZi-PJopCHLtHp6JKRj-137">
          <mxGeometry x="129.32" y="830" width="151.35" height="20" as="geometry" />
        </mxCell>
        <mxCell id="NtZi-PJopCHLtHp6JKRj-251" value="Funcionário atribuído" style="rounded=0;whiteSpace=wrap;html=1;" vertex="1" parent="NtZi-PJopCHLtHp6JKRj-137">
          <mxGeometry x="19.99" y="40" width="120.01" height="20" as="geometry" />
        </mxCell>
        <mxCell id="NtZi-PJopCHLtHp6JKRj-58" value="" style="group;fillColor=#ffe6cc;strokeColor=#d79b00;" vertex="1" connectable="0" parent="NtZi-PJopCHLtHp6JKRj-137">
          <mxGeometry x="19.99000000000001" y="70" width="370" height="370" as="geometry" />
        </mxCell>
        <mxCell id="NtZi-PJopCHLtHp6JKRj-2" value="Agendamento 1" style="text;html=1;align=center;verticalAlign=middle;resizable=0;points=[];autosize=1;strokeColor=none;fillColor=none;fontSize=16;" vertex="1" parent="NtZi-PJopCHLtHp6JKRj-58">
          <mxGeometry x="0.009999999999999787" width="140" height="30" as="geometry" />
        </mxCell>
        <mxCell id="NtZi-PJopCHLtHp6JKRj-290" value="" style="group" vertex="1" connectable="0" parent="NtZi-PJopCHLtHp6JKRj-58">
          <mxGeometry x="20" y="40" width="330" height="310" as="geometry" />
        </mxCell>
        <mxCell id="NtZi-PJopCHLtHp6JKRj-39" value="..." style="rounded=0;whiteSpace=wrap;html=1;fillColor=#f8cecc;strokeColor=#b85450;" vertex="1" parent="NtZi-PJopCHLtHp6JKRj-290">
          <mxGeometry x="125" y="290" width="80" height="20" as="geometry" />
        </mxCell>
        <mxCell id="NtZi-PJopCHLtHp6JKRj-57" value="" style="group" vertex="1" connectable="0" parent="NtZi-PJopCHLtHp6JKRj-290">
          <mxGeometry width="330" height="50" as="geometry" />
        </mxCell>
        <mxCell id="NtZi-PJopCHLtHp6JKRj-3" value="Serviço" style="rounded=0;whiteSpace=wrap;html=1;" vertex="1" parent="NtZi-PJopCHLtHp6JKRj-57">
          <mxGeometry width="60" height="20" as="geometry" />
        </mxCell>
        <mxCell id="NtZi-PJopCHLtHp6JKRj-4" value="Data e Hora" style="rounded=0;whiteSpace=wrap;html=1;" vertex="1" parent="NtZi-PJopCHLtHp6JKRj-57">
          <mxGeometry x="70" width="80" height="20" as="geometry" />
        </mxCell>
        <mxCell id="NtZi-PJopCHLtHp6JKRj-5" value="É recorrente?" style="rounded=0;whiteSpace=wrap;html=1;" vertex="1" parent="NtZi-PJopCHLtHp6JKRj-57">
          <mxGeometry x="160" width="90" height="20" as="geometry" />
        </mxCell>
        <mxCell id="NtZi-PJopCHLtHp6JKRj-6" value="[ Funcionário atribuído ]" style="rounded=0;whiteSpace=wrap;html=1;" vertex="1" parent="NtZi-PJopCHLtHp6JKRj-57">
          <mxGeometry y="30" width="150" height="20" as="geometry" />
        </mxCell>
        <mxCell id="NtZi-PJopCHLtHp6JKRj-7" value="Local de busca e devolução" style="rounded=0;whiteSpace=wrap;html=1;" vertex="1" parent="NtZi-PJopCHLtHp6JKRj-57">
          <mxGeometry x="160" y="30" width="170" height="20" as="geometry" />
        </mxCell>
        <mxCell id="NtZi-PJopCHLtHp6JKRj-17" value="..." style="rounded=0;whiteSpace=wrap;html=1;" vertex="1" parent="NtZi-PJopCHLtHp6JKRj-57">
          <mxGeometry x="260" width="70" height="20" as="geometry" />
        </mxCell>
        <mxCell id="NtZi-PJopCHLtHp6JKRj-291" value="" style="group" vertex="1" connectable="0" parent="NtZi-PJopCHLtHp6JKRj-58">
          <mxGeometry x="20" y="100" width="330" height="100" as="geometry" />
        </mxCell>
        <mxCell id="NtZi-PJopCHLtHp6JKRj-41" value="" style="group" vertex="1" connectable="0" parent="NtZi-PJopCHLtHp6JKRj-291">
          <mxGeometry width="330" height="100" as="geometry" />
        </mxCell>
        <mxCell id="NtZi-PJopCHLtHp6JKRj-8" value="" style="rounded=0;whiteSpace=wrap;html=1;fillColor=#f8cecc;strokeColor=#b85450;" vertex="1" parent="NtZi-PJopCHLtHp6JKRj-41">
          <mxGeometry width="330" height="100" as="geometry" />
        </mxCell>
        <mxCell id="NtZi-PJopCHLtHp6JKRj-9" value="&lt;font style=&quot;font-size: 12px;&quot;&gt;Pet 1&lt;/font&gt;" style="text;html=1;align=center;verticalAlign=middle;resizable=0;points=[];autosize=1;strokeColor=none;fillColor=none;fontSize=16;" vertex="1" parent="NtZi-PJopCHLtHp6JKRj-41">
          <mxGeometry width="50" height="30" as="geometry" />
        </mxCell>
        <mxCell id="NtZi-PJopCHLtHp6JKRj-42" value="" style="group" vertex="1" connectable="0" parent="NtZi-PJopCHLtHp6JKRj-291">
          <mxGeometry x="10" y="30" width="310" height="50" as="geometry" />
        </mxCell>
        <mxCell id="NtZi-PJopCHLtHp6JKRj-10" value="Dono" style="rounded=0;whiteSpace=wrap;html=1;" vertex="1" parent="NtZi-PJopCHLtHp6JKRj-42">
          <mxGeometry width="50" height="20" as="geometry" />
        </mxCell>
        <mxCell id="NtZi-PJopCHLtHp6JKRj-11" value="Raça" style="rounded=0;whiteSpace=wrap;html=1;" vertex="1" parent="NtZi-PJopCHLtHp6JKRj-42">
          <mxGeometry x="60" width="50" height="20" as="geometry" />
        </mxCell>
        <mxCell id="NtZi-PJopCHLtHp6JKRj-12" value="Nome" style="rounded=0;whiteSpace=wrap;html=1;" vertex="1" parent="NtZi-PJopCHLtHp6JKRj-42">
          <mxGeometry x="120" width="60" height="20" as="geometry" />
        </mxCell>
        <mxCell id="NtZi-PJopCHLtHp6JKRj-13" value="Espécie" style="rounded=0;whiteSpace=wrap;html=1;" vertex="1" parent="NtZi-PJopCHLtHp6JKRj-42">
          <mxGeometry y="30" width="70" height="20" as="geometry" />
        </mxCell>
        <mxCell id="NtZi-PJopCHLtHp6JKRj-14" value="Remédios" style="rounded=0;whiteSpace=wrap;html=1;" vertex="1" parent="NtZi-PJopCHLtHp6JKRj-42">
          <mxGeometry x="80" y="30" width="80" height="20" as="geometry" />
        </mxCell>
        <mxCell id="NtZi-PJopCHLtHp6JKRj-15" value="Cartão de vacina" style="rounded=0;whiteSpace=wrap;html=1;" vertex="1" parent="NtZi-PJopCHLtHp6JKRj-42">
          <mxGeometry x="190" width="120" height="20" as="geometry" />
        </mxCell>
        <mxCell id="NtZi-PJopCHLtHp6JKRj-16" value="..." style="rounded=0;whiteSpace=wrap;html=1;" vertex="1" parent="NtZi-PJopCHLtHp6JKRj-42">
          <mxGeometry x="230" y="30" width="80" height="20" as="geometry" />
        </mxCell>
        <mxCell id="NtZi-PJopCHLtHp6JKRj-18" value="Porte" style="rounded=0;whiteSpace=wrap;html=1;" vertex="1" parent="NtZi-PJopCHLtHp6JKRj-42">
          <mxGeometry x="170" y="30" width="50" height="20" as="geometry" />
        </mxCell>
        <mxCell id="NtZi-PJopCHLtHp6JKRj-296" value="" style="group" vertex="1" connectable="0" parent="NtZi-PJopCHLtHp6JKRj-58">
          <mxGeometry x="20" y="210" width="330" height="100" as="geometry" />
        </mxCell>
        <mxCell id="NtZi-PJopCHLtHp6JKRj-297" value="" style="group" vertex="1" connectable="0" parent="NtZi-PJopCHLtHp6JKRj-296">
          <mxGeometry width="330" height="100" as="geometry" />
        </mxCell>
        <mxCell id="NtZi-PJopCHLtHp6JKRj-298" value="" style="rounded=0;whiteSpace=wrap;html=1;fillColor=#f8cecc;strokeColor=#b85450;" vertex="1" parent="NtZi-PJopCHLtHp6JKRj-297">
          <mxGeometry width="330" height="100" as="geometry" />
        </mxCell>
        <mxCell id="NtZi-PJopCHLtHp6JKRj-299" value="&lt;font style=&quot;font-size: 12px;&quot;&gt;Pet 2&lt;/font&gt;" style="text;html=1;align=center;verticalAlign=middle;resizable=0;points=[];autosize=1;strokeColor=none;fillColor=none;fontSize=16;" vertex="1" parent="NtZi-PJopCHLtHp6JKRj-297">
          <mxGeometry width="50" height="30" as="geometry" />
        </mxCell>
        <mxCell id="NtZi-PJopCHLtHp6JKRj-300" value="" style="group" vertex="1" connectable="0" parent="NtZi-PJopCHLtHp6JKRj-296">
          <mxGeometry x="10" y="30" width="310" height="50" as="geometry" />
        </mxCell>
        <mxCell id="NtZi-PJopCHLtHp6JKRj-301" value="Dono" style="rounded=0;whiteSpace=wrap;html=1;" vertex="1" parent="NtZi-PJopCHLtHp6JKRj-300">
          <mxGeometry width="50" height="20" as="geometry" />
        </mxCell>
        <mxCell id="NtZi-PJopCHLtHp6JKRj-302" value="Raça" style="rounded=0;whiteSpace=wrap;html=1;" vertex="1" parent="NtZi-PJopCHLtHp6JKRj-300">
          <mxGeometry x="60" width="50" height="20" as="geometry" />
        </mxCell>
        <mxCell id="NtZi-PJopCHLtHp6JKRj-303" value="Nome" style="rounded=0;whiteSpace=wrap;html=1;" vertex="1" parent="NtZi-PJopCHLtHp6JKRj-300">
          <mxGeometry x="120" width="60" height="20" as="geometry" />
        </mxCell>
        <mxCell id="NtZi-PJopCHLtHp6JKRj-304" value="Espécie" style="rounded=0;whiteSpace=wrap;html=1;" vertex="1" parent="NtZi-PJopCHLtHp6JKRj-300">
          <mxGeometry y="30" width="70" height="20" as="geometry" />
        </mxCell>
        <mxCell id="NtZi-PJopCHLtHp6JKRj-305" value="Remédios" style="rounded=0;whiteSpace=wrap;html=1;" vertex="1" parent="NtZi-PJopCHLtHp6JKRj-300">
          <mxGeometry x="80" y="30" width="80" height="20" as="geometry" />
        </mxCell>
        <mxCell id="NtZi-PJopCHLtHp6JKRj-306" value="Cartão de vacina" style="rounded=0;whiteSpace=wrap;html=1;" vertex="1" parent="NtZi-PJopCHLtHp6JKRj-300">
          <mxGeometry x="190" width="120" height="20" as="geometry" />
        </mxCell>
        <mxCell id="NtZi-PJopCHLtHp6JKRj-307" value="..." style="rounded=0;whiteSpace=wrap;html=1;" vertex="1" parent="NtZi-PJopCHLtHp6JKRj-300">
          <mxGeometry x="230" y="30" width="80" height="20" as="geometry" />
        </mxCell>
        <mxCell id="NtZi-PJopCHLtHp6JKRj-308" value="Porte" style="rounded=0;whiteSpace=wrap;html=1;" vertex="1" parent="NtZi-PJopCHLtHp6JKRj-300">
          <mxGeometry x="170" y="30" width="50" height="20" as="geometry" />
        </mxCell>
        <mxCell id="NtZi-PJopCHLtHp6JKRj-309" value="" style="group;fillColor=#ffe6cc;strokeColor=#d79b00;" vertex="1" connectable="0" parent="NtZi-PJopCHLtHp6JKRj-137">
          <mxGeometry x="19.990000000000006" y="450" width="370" height="370" as="geometry" />
        </mxCell>
        <mxCell id="NtZi-PJopCHLtHp6JKRj-310" value="Agendamento 2" style="text;html=1;align=center;verticalAlign=middle;resizable=0;points=[];autosize=1;strokeColor=none;fillColor=none;fontSize=16;" vertex="1" parent="NtZi-PJopCHLtHp6JKRj-309">
          <mxGeometry x="0.009999999999999787" width="140" height="30" as="geometry" />
        </mxCell>
        <mxCell id="NtZi-PJopCHLtHp6JKRj-311" value="" style="group" vertex="1" connectable="0" parent="NtZi-PJopCHLtHp6JKRj-309">
          <mxGeometry x="20" y="40" width="330" height="310" as="geometry" />
        </mxCell>
        <mxCell id="NtZi-PJopCHLtHp6JKRj-312" value="..." style="rounded=0;whiteSpace=wrap;html=1;fillColor=#f8cecc;strokeColor=#b85450;" vertex="1" parent="NtZi-PJopCHLtHp6JKRj-311">
          <mxGeometry x="125" y="290" width="80" height="20" as="geometry" />
        </mxCell>
        <mxCell id="NtZi-PJopCHLtHp6JKRj-313" value="" style="group" vertex="1" connectable="0" parent="NtZi-PJopCHLtHp6JKRj-311">
          <mxGeometry width="330" height="50" as="geometry" />
        </mxCell>
        <mxCell id="NtZi-PJopCHLtHp6JKRj-314" value="Serviço" style="rounded=0;whiteSpace=wrap;html=1;" vertex="1" parent="NtZi-PJopCHLtHp6JKRj-313">
          <mxGeometry width="60" height="20" as="geometry" />
        </mxCell>
        <mxCell id="NtZi-PJopCHLtHp6JKRj-315" value="Data e Hora" style="rounded=0;whiteSpace=wrap;html=1;" vertex="1" parent="NtZi-PJopCHLtHp6JKRj-313">
          <mxGeometry x="70" width="80" height="20" as="geometry" />
        </mxCell>
        <mxCell id="NtZi-PJopCHLtHp6JKRj-316" value="É recorrente?" style="rounded=0;whiteSpace=wrap;html=1;" vertex="1" parent="NtZi-PJopCHLtHp6JKRj-313">
          <mxGeometry x="160" width="90" height="20" as="geometry" />
        </mxCell>
        <mxCell id="NtZi-PJopCHLtHp6JKRj-317" value="[ Funcionário atribuído ]" style="rounded=0;whiteSpace=wrap;html=1;" vertex="1" parent="NtZi-PJopCHLtHp6JKRj-313">
          <mxGeometry y="30" width="150" height="20" as="geometry" />
        </mxCell>
        <mxCell id="NtZi-PJopCHLtHp6JKRj-318" value="Local de busca e devolução" style="rounded=0;whiteSpace=wrap;html=1;" vertex="1" parent="NtZi-PJopCHLtHp6JKRj-313">
          <mxGeometry x="160" y="30" width="170" height="20" as="geometry" />
        </mxCell>
        <mxCell id="NtZi-PJopCHLtHp6JKRj-319" value="..." style="rounded=0;whiteSpace=wrap;html=1;" vertex="1" parent="NtZi-PJopCHLtHp6JKRj-313">
          <mxGeometry x="260" width="70" height="20" as="geometry" />
        </mxCell>
        <mxCell id="NtZi-PJopCHLtHp6JKRj-320" value="" style="group" vertex="1" connectable="0" parent="NtZi-PJopCHLtHp6JKRj-309">
          <mxGeometry x="20" y="100" width="330" height="100" as="geometry" />
        </mxCell>
        <mxCell id="NtZi-PJopCHLtHp6JKRj-321" value="" style="group" vertex="1" connectable="0" parent="NtZi-PJopCHLtHp6JKRj-320">
          <mxGeometry width="330" height="100" as="geometry" />
        </mxCell>
        <mxCell id="NtZi-PJopCHLtHp6JKRj-322" value="" style="rounded=0;whiteSpace=wrap;html=1;fillColor=#f8cecc;strokeColor=#b85450;" vertex="1" parent="NtZi-PJopCHLtHp6JKRj-321">
          <mxGeometry width="330" height="100" as="geometry" />
        </mxCell>
        <mxCell id="NtZi-PJopCHLtHp6JKRj-323" value="&lt;font style=&quot;font-size: 12px;&quot;&gt;Pet 1&lt;/font&gt;" style="text;html=1;align=center;verticalAlign=middle;resizable=0;points=[];autosize=1;strokeColor=none;fillColor=none;fontSize=16;" vertex="1" parent="NtZi-PJopCHLtHp6JKRj-321">
          <mxGeometry width="50" height="30" as="geometry" />
        </mxCell>
        <mxCell id="NtZi-PJopCHLtHp6JKRj-324" value="" style="group" vertex="1" connectable="0" parent="NtZi-PJopCHLtHp6JKRj-320">
          <mxGeometry x="10" y="30" width="310" height="50" as="geometry" />
        </mxCell>
        <mxCell id="NtZi-PJopCHLtHp6JKRj-325" value="Dono" style="rounded=0;whiteSpace=wrap;html=1;" vertex="1" parent="NtZi-PJopCHLtHp6JKRj-324">
          <mxGeometry width="50" height="20" as="geometry" />
        </mxCell>
        <mxCell id="NtZi-PJopCHLtHp6JKRj-326" value="Raça" style="rounded=0;whiteSpace=wrap;html=1;" vertex="1" parent="NtZi-PJopCHLtHp6JKRj-324">
          <mxGeometry x="60" width="50" height="20" as="geometry" />
        </mxCell>
        <mxCell id="NtZi-PJopCHLtHp6JKRj-327" value="Nome" style="rounded=0;whiteSpace=wrap;html=1;" vertex="1" parent="NtZi-PJopCHLtHp6JKRj-324">
          <mxGeometry x="120" width="60" height="20" as="geometry" />
        </mxCell>
        <mxCell id="NtZi-PJopCHLtHp6JKRj-328" value="Espécie" style="rounded=0;whiteSpace=wrap;html=1;" vertex="1" parent="NtZi-PJopCHLtHp6JKRj-324">
          <mxGeometry y="30" width="70" height="20" as="geometry" />
        </mxCell>
        <mxCell id="NtZi-PJopCHLtHp6JKRj-329" value="Remédios" style="rounded=0;whiteSpace=wrap;html=1;" vertex="1" parent="NtZi-PJopCHLtHp6JKRj-324">
          <mxGeometry x="80" y="30" width="80" height="20" as="geometry" />
        </mxCell>
        <mxCell id="NtZi-PJopCHLtHp6JKRj-330" value="Cartão de vacina" style="rounded=0;whiteSpace=wrap;html=1;" vertex="1" parent="NtZi-PJopCHLtHp6JKRj-324">
          <mxGeometry x="190" width="120" height="20" as="geometry" />
        </mxCell>
        <mxCell id="NtZi-PJopCHLtHp6JKRj-331" value="..." style="rounded=0;whiteSpace=wrap;html=1;" vertex="1" parent="NtZi-PJopCHLtHp6JKRj-324">
          <mxGeometry x="230" y="30" width="80" height="20" as="geometry" />
        </mxCell>
        <mxCell id="NtZi-PJopCHLtHp6JKRj-332" value="Porte" style="rounded=0;whiteSpace=wrap;html=1;" vertex="1" parent="NtZi-PJopCHLtHp6JKRj-324">
          <mxGeometry x="170" y="30" width="50" height="20" as="geometry" />
        </mxCell>
        <mxCell id="NtZi-PJopCHLtHp6JKRj-333" value="" style="group" vertex="1" connectable="0" parent="NtZi-PJopCHLtHp6JKRj-309">
          <mxGeometry x="20" y="210" width="330" height="100" as="geometry" />
        </mxCell>
        <mxCell id="NtZi-PJopCHLtHp6JKRj-334" value="" style="group" vertex="1" connectable="0" parent="NtZi-PJopCHLtHp6JKRj-333">
          <mxGeometry width="330" height="100" as="geometry" />
        </mxCell>
        <mxCell id="NtZi-PJopCHLtHp6JKRj-335" value="" style="rounded=0;whiteSpace=wrap;html=1;fillColor=#f8cecc;strokeColor=#b85450;" vertex="1" parent="NtZi-PJopCHLtHp6JKRj-334">
          <mxGeometry width="330" height="100" as="geometry" />
        </mxCell>
        <mxCell id="NtZi-PJopCHLtHp6JKRj-336" value="&lt;font style=&quot;font-size: 12px;&quot;&gt;Pet 2&lt;/font&gt;" style="text;html=1;align=center;verticalAlign=middle;resizable=0;points=[];autosize=1;strokeColor=none;fillColor=none;fontSize=16;" vertex="1" parent="NtZi-PJopCHLtHp6JKRj-334">
          <mxGeometry width="50" height="30" as="geometry" />
        </mxCell>
        <mxCell id="NtZi-PJopCHLtHp6JKRj-337" value="" style="group" vertex="1" connectable="0" parent="NtZi-PJopCHLtHp6JKRj-333">
          <mxGeometry x="10" y="30" width="310" height="50" as="geometry" />
        </mxCell>
        <mxCell id="NtZi-PJopCHLtHp6JKRj-338" value="Dono" style="rounded=0;whiteSpace=wrap;html=1;" vertex="1" parent="NtZi-PJopCHLtHp6JKRj-337">
          <mxGeometry width="50" height="20" as="geometry" />
        </mxCell>
        <mxCell id="NtZi-PJopCHLtHp6JKRj-339" value="Raça" style="rounded=0;whiteSpace=wrap;html=1;" vertex="1" parent="NtZi-PJopCHLtHp6JKRj-337">
          <mxGeometry x="60" width="50" height="20" as="geometry" />
        </mxCell>
        <mxCell id="NtZi-PJopCHLtHp6JKRj-340" value="Nome" style="rounded=0;whiteSpace=wrap;html=1;" vertex="1" parent="NtZi-PJopCHLtHp6JKRj-337">
          <mxGeometry x="120" width="60" height="20" as="geometry" />
        </mxCell>
        <mxCell id="NtZi-PJopCHLtHp6JKRj-341" value="Espécie" style="rounded=0;whiteSpace=wrap;html=1;" vertex="1" parent="NtZi-PJopCHLtHp6JKRj-337">
          <mxGeometry y="30" width="70" height="20" as="geometry" />
        </mxCell>
        <mxCell id="NtZi-PJopCHLtHp6JKRj-342" value="Remédios" style="rounded=0;whiteSpace=wrap;html=1;" vertex="1" parent="NtZi-PJopCHLtHp6JKRj-337">
          <mxGeometry x="80" y="30" width="80" height="20" as="geometry" />
        </mxCell>
        <mxCell id="NtZi-PJopCHLtHp6JKRj-343" value="Cartão de vacina" style="rounded=0;whiteSpace=wrap;html=1;" vertex="1" parent="NtZi-PJopCHLtHp6JKRj-337">
          <mxGeometry x="190" width="120" height="20" as="geometry" />
        </mxCell>
        <mxCell id="NtZi-PJopCHLtHp6JKRj-344" value="..." style="rounded=0;whiteSpace=wrap;html=1;" vertex="1" parent="NtZi-PJopCHLtHp6JKRj-337">
          <mxGeometry x="230" y="30" width="80" height="20" as="geometry" />
        </mxCell>
        <mxCell id="NtZi-PJopCHLtHp6JKRj-345" value="Porte" style="rounded=0;whiteSpace=wrap;html=1;" vertex="1" parent="NtZi-PJopCHLtHp6JKRj-337">
          <mxGeometry x="170" y="30" width="50" height="20" as="geometry" />
        </mxCell>
        <mxCell id="NtZi-PJopCHLtHp6JKRj-346" value="Hora de Início" style="rounded=0;whiteSpace=wrap;html=1;" vertex="1" parent="NtZi-PJopCHLtHp6JKRj-137">
          <mxGeometry x="210" y="40" width="90" height="20" as="geometry" />
        </mxCell>
        <mxCell id="NtZi-PJopCHLtHp6JKRj-347" value="Hora de fim" style="rounded=0;whiteSpace=wrap;html=1;" vertex="1" parent="NtZi-PJopCHLtHp6JKRj-137">
          <mxGeometry x="310" y="40" width="79.99" height="20" as="geometry" />
        </mxCell>
        <mxCell id="NtZi-PJopCHLtHp6JKRj-348" value="Data" style="rounded=0;whiteSpace=wrap;html=1;" vertex="1" parent="NtZi-PJopCHLtHp6JKRj-137">
          <mxGeometry x="150" y="40" width="49.33" height="20" as="geometry" />
        </mxCell>
        <mxCell id="NtZi-PJopCHLtHp6JKRj-386" value="" style="group;fillColor=#ffe6cc;strokeColor=#d79b00;" vertex="1" connectable="0" parent="1">
          <mxGeometry x="-779.9999999999998" y="240" width="370" height="370" as="geometry" />
        </mxCell>
        <mxCell id="NtZi-PJopCHLtHp6JKRj-387" value="Agendamento" style="text;html=1;align=center;verticalAlign=middle;resizable=0;points=[];autosize=1;strokeColor=none;fillColor=none;fontSize=16;" vertex="1" parent="NtZi-PJopCHLtHp6JKRj-386">
          <mxGeometry width="120" height="30" as="geometry" />
        </mxCell>
        <mxCell id="NtZi-PJopCHLtHp6JKRj-388" value="" style="group" vertex="1" connectable="0" parent="NtZi-PJopCHLtHp6JKRj-386">
          <mxGeometry x="20" y="40" width="330" height="310" as="geometry" />
        </mxCell>
        <mxCell id="NtZi-PJopCHLtHp6JKRj-389" value="..." style="rounded=0;whiteSpace=wrap;html=1;fillColor=#f8cecc;strokeColor=#b85450;" vertex="1" parent="NtZi-PJopCHLtHp6JKRj-388">
          <mxGeometry x="125" y="290" width="80" height="20" as="geometry" />
        </mxCell>
        <mxCell id="NtZi-PJopCHLtHp6JKRj-390" value="" style="group" vertex="1" connectable="0" parent="NtZi-PJopCHLtHp6JKRj-388">
          <mxGeometry width="330" height="50" as="geometry" />
        </mxCell>
        <mxCell id="NtZi-PJopCHLtHp6JKRj-391" value="Serviço" style="rounded=0;whiteSpace=wrap;html=1;" vertex="1" parent="NtZi-PJopCHLtHp6JKRj-390">
          <mxGeometry width="60" height="20" as="geometry" />
        </mxCell>
        <mxCell id="NtZi-PJopCHLtHp6JKRj-392" value="Data e Hora" style="rounded=0;whiteSpace=wrap;html=1;" vertex="1" parent="NtZi-PJopCHLtHp6JKRj-390">
          <mxGeometry x="70" width="80" height="20" as="geometry" />
        </mxCell>
        <mxCell id="NtZi-PJopCHLtHp6JKRj-393" value="É recorrente?" style="rounded=0;whiteSpace=wrap;html=1;" vertex="1" parent="NtZi-PJopCHLtHp6JKRj-390">
          <mxGeometry x="160" width="90" height="20" as="geometry" />
        </mxCell>
        <mxCell id="NtZi-PJopCHLtHp6JKRj-394" value="[ Funcionário atribuído ]" style="rounded=0;whiteSpace=wrap;html=1;" vertex="1" parent="NtZi-PJopCHLtHp6JKRj-390">
          <mxGeometry y="30" width="150" height="20" as="geometry" />
        </mxCell>
        <mxCell id="NtZi-PJopCHLtHp6JKRj-395" value="Local de busca e devolução" style="rounded=0;whiteSpace=wrap;html=1;" vertex="1" parent="NtZi-PJopCHLtHp6JKRj-390">
          <mxGeometry x="160" y="30" width="170" height="20" as="geometry" />
        </mxCell>
        <mxCell id="NtZi-PJopCHLtHp6JKRj-396" value="..." style="rounded=0;whiteSpace=wrap;html=1;" vertex="1" parent="NtZi-PJopCHLtHp6JKRj-390">
          <mxGeometry x="260" width="70" height="20" as="geometry" />
        </mxCell>
        <mxCell id="NtZi-PJopCHLtHp6JKRj-397" value="" style="group" vertex="1" connectable="0" parent="NtZi-PJopCHLtHp6JKRj-386">
          <mxGeometry x="20" y="100" width="330" height="100" as="geometry" />
        </mxCell>
        <mxCell id="NtZi-PJopCHLtHp6JKRj-398" value="" style="group" vertex="1" connectable="0" parent="NtZi-PJopCHLtHp6JKRj-397">
          <mxGeometry width="330" height="100" as="geometry" />
        </mxCell>
        <mxCell id="NtZi-PJopCHLtHp6JKRj-399" value="" style="rounded=0;whiteSpace=wrap;html=1;fillColor=#f8cecc;strokeColor=#b85450;" vertex="1" parent="NtZi-PJopCHLtHp6JKRj-398">
          <mxGeometry width="330" height="100" as="geometry" />
        </mxCell>
        <mxCell id="NtZi-PJopCHLtHp6JKRj-400" value="&lt;font style=&quot;font-size: 12px;&quot;&gt;Pet 1&lt;/font&gt;" style="text;html=1;align=center;verticalAlign=middle;resizable=0;points=[];autosize=1;strokeColor=none;fillColor=none;fontSize=16;" vertex="1" parent="NtZi-PJopCHLtHp6JKRj-398">
          <mxGeometry width="50" height="30" as="geometry" />
        </mxCell>
        <mxCell id="NtZi-PJopCHLtHp6JKRj-401" value="" style="group" vertex="1" connectable="0" parent="NtZi-PJopCHLtHp6JKRj-397">
          <mxGeometry x="10" y="30" width="310" height="50" as="geometry" />
        </mxCell>
        <mxCell id="NtZi-PJopCHLtHp6JKRj-402" value="Dono" style="rounded=0;whiteSpace=wrap;html=1;" vertex="1" parent="NtZi-PJopCHLtHp6JKRj-401">
          <mxGeometry width="50" height="20" as="geometry" />
        </mxCell>
        <mxCell id="NtZi-PJopCHLtHp6JKRj-403" value="Raça" style="rounded=0;whiteSpace=wrap;html=1;" vertex="1" parent="NtZi-PJopCHLtHp6JKRj-401">
          <mxGeometry x="60" width="50" height="20" as="geometry" />
        </mxCell>
        <mxCell id="NtZi-PJopCHLtHp6JKRj-404" value="Nome" style="rounded=0;whiteSpace=wrap;html=1;" vertex="1" parent="NtZi-PJopCHLtHp6JKRj-401">
          <mxGeometry x="120" width="60" height="20" as="geometry" />
        </mxCell>
        <mxCell id="NtZi-PJopCHLtHp6JKRj-405" value="Espécie" style="rounded=0;whiteSpace=wrap;html=1;" vertex="1" parent="NtZi-PJopCHLtHp6JKRj-401">
          <mxGeometry y="30" width="70" height="20" as="geometry" />
        </mxCell>
        <mxCell id="NtZi-PJopCHLtHp6JKRj-406" value="Remédios" style="rounded=0;whiteSpace=wrap;html=1;" vertex="1" parent="NtZi-PJopCHLtHp6JKRj-401">
          <mxGeometry x="80" y="30" width="80" height="20" as="geometry" />
        </mxCell>
        <mxCell id="NtZi-PJopCHLtHp6JKRj-407" value="Cartão de vacina" style="rounded=0;whiteSpace=wrap;html=1;" vertex="1" parent="NtZi-PJopCHLtHp6JKRj-401">
          <mxGeometry x="190" width="120" height="20" as="geometry" />
        </mxCell>
        <mxCell id="NtZi-PJopCHLtHp6JKRj-408" value="..." style="rounded=0;whiteSpace=wrap;html=1;" vertex="1" parent="NtZi-PJopCHLtHp6JKRj-401">
          <mxGeometry x="230" y="30" width="80" height="20" as="geometry" />
        </mxCell>
        <mxCell id="NtZi-PJopCHLtHp6JKRj-409" value="Porte" style="rounded=0;whiteSpace=wrap;html=1;" vertex="1" parent="NtZi-PJopCHLtHp6JKRj-401">
          <mxGeometry x="170" y="30" width="50" height="20" as="geometry" />
        </mxCell>
        <mxCell id="NtZi-PJopCHLtHp6JKRj-410" value="" style="group" vertex="1" connectable="0" parent="NtZi-PJopCHLtHp6JKRj-386">
          <mxGeometry x="20" y="210" width="330" height="100" as="geometry" />
        </mxCell>
        <mxCell id="NtZi-PJopCHLtHp6JKRj-411" value="" style="group" vertex="1" connectable="0" parent="NtZi-PJopCHLtHp6JKRj-410">
          <mxGeometry width="330" height="100" as="geometry" />
        </mxCell>
        <mxCell id="NtZi-PJopCHLtHp6JKRj-412" value="" style="rounded=0;whiteSpace=wrap;html=1;fillColor=#f8cecc;strokeColor=#b85450;" vertex="1" parent="NtZi-PJopCHLtHp6JKRj-411">
          <mxGeometry width="330" height="100" as="geometry" />
        </mxCell>
        <mxCell id="NtZi-PJopCHLtHp6JKRj-413" value="&lt;font style=&quot;font-size: 12px;&quot;&gt;Pet 2&lt;/font&gt;" style="text;html=1;align=center;verticalAlign=middle;resizable=0;points=[];autosize=1;strokeColor=none;fillColor=none;fontSize=16;" vertex="1" parent="NtZi-PJopCHLtHp6JKRj-411">
          <mxGeometry width="50" height="30" as="geometry" />
        </mxCell>
        <mxCell id="NtZi-PJopCHLtHp6JKRj-414" value="" style="group" vertex="1" connectable="0" parent="NtZi-PJopCHLtHp6JKRj-410">
          <mxGeometry x="10" y="30" width="310" height="50" as="geometry" />
        </mxCell>
        <mxCell id="NtZi-PJopCHLtHp6JKRj-415" value="Dono" style="rounded=0;whiteSpace=wrap;html=1;" vertex="1" parent="NtZi-PJopCHLtHp6JKRj-414">
          <mxGeometry width="50" height="20" as="geometry" />
        </mxCell>
        <mxCell id="NtZi-PJopCHLtHp6JKRj-416" value="Raça" style="rounded=0;whiteSpace=wrap;html=1;" vertex="1" parent="NtZi-PJopCHLtHp6JKRj-414">
          <mxGeometry x="60" width="50" height="20" as="geometry" />
        </mxCell>
        <mxCell id="NtZi-PJopCHLtHp6JKRj-417" value="Nome" style="rounded=0;whiteSpace=wrap;html=1;" vertex="1" parent="NtZi-PJopCHLtHp6JKRj-414">
          <mxGeometry x="120" width="60" height="20" as="geometry" />
        </mxCell>
        <mxCell id="NtZi-PJopCHLtHp6JKRj-418" value="Espécie" style="rounded=0;whiteSpace=wrap;html=1;" vertex="1" parent="NtZi-PJopCHLtHp6JKRj-414">
          <mxGeometry y="30" width="70" height="20" as="geometry" />
        </mxCell>
        <mxCell id="NtZi-PJopCHLtHp6JKRj-419" value="Remédios" style="rounded=0;whiteSpace=wrap;html=1;" vertex="1" parent="NtZi-PJopCHLtHp6JKRj-414">
          <mxGeometry x="80" y="30" width="80" height="20" as="geometry" />
        </mxCell>
        <mxCell id="NtZi-PJopCHLtHp6JKRj-420" value="Cartão de vacina" style="rounded=0;whiteSpace=wrap;html=1;" vertex="1" parent="NtZi-PJopCHLtHp6JKRj-414">
          <mxGeometry x="190" width="120" height="20" as="geometry" />
        </mxCell>
        <mxCell id="NtZi-PJopCHLtHp6JKRj-421" value="..." style="rounded=0;whiteSpace=wrap;html=1;" vertex="1" parent="NtZi-PJopCHLtHp6JKRj-414">
          <mxGeometry x="230" y="30" width="80" height="20" as="geometry" />
        </mxCell>
        <mxCell id="NtZi-PJopCHLtHp6JKRj-422" value="Porte" style="rounded=0;whiteSpace=wrap;html=1;" vertex="1" parent="NtZi-PJopCHLtHp6JKRj-414">
          <mxGeometry x="170" y="30" width="50" height="20" as="geometry" />
        </mxCell>
        <mxCell id="NtZi-PJopCHLtHp6JKRj-423" value="" style="group;fillColor=#e1d5e7;strokeColor=#9673a6;container=0;" vertex="1" connectable="0" parent="1">
          <mxGeometry x="-150" y="618" width="370" height="411" as="geometry" />
        </mxCell>
        <mxCell id="NtZi-PJopCHLtHp6JKRj-424" value="Agenda de funcionário" style="text;html=1;align=center;verticalAlign=middle;resizable=0;points=[];autosize=1;strokeColor=none;fillColor=none;fontSize=16;" vertex="1" parent="1">
          <mxGeometry x="-149.99999999999977" y="618" width="180" height="30" as="geometry" />
        </mxCell>
        <mxCell id="NtZi-PJopCHLtHp6JKRj-425" value="" style="group" vertex="1" connectable="0" parent="1">
          <mxGeometry x="-129.99999999999977" y="658" width="330" height="310" as="geometry" />
        </mxCell>
        <mxCell id="NtZi-PJopCHLtHp6JKRj-427" value="" style="group" vertex="1" connectable="0" parent="NtZi-PJopCHLtHp6JKRj-425">
          <mxGeometry width="330" height="50" as="geometry" />
        </mxCell>
        <mxCell id="NtZi-PJopCHLtHp6JKRj-428" value="Funcionário" style="rounded=0;whiteSpace=wrap;html=1;" vertex="1" parent="NtZi-PJopCHLtHp6JKRj-427">
          <mxGeometry width="140" height="20" as="geometry" />
        </mxCell>
        <mxCell id="NtZi-PJopCHLtHp6JKRj-433" value="..." style="rounded=0;whiteSpace=wrap;html=1;" vertex="1" parent="NtZi-PJopCHLtHp6JKRj-427">
          <mxGeometry x="260" width="70" height="20" as="geometry" />
        </mxCell>
        <mxCell id="NtZi-PJopCHLtHp6JKRj-429" value="Dia" style="rounded=0;whiteSpace=wrap;html=1;" vertex="1" parent="1">
          <mxGeometry x="20.000000000000227" y="658" width="100" height="20" as="geometry" />
        </mxCell>
        <mxCell id="NtZi-PJopCHLtHp6JKRj-504" value="" style="group" vertex="1" connectable="0" parent="1">
          <mxGeometry x="-129.99999999999977" y="689" width="330" height="140" as="geometry" />
        </mxCell>
        <mxCell id="NtZi-PJopCHLtHp6JKRj-436" value="" style="rounded=0;whiteSpace=wrap;html=1;fillColor=#ffe6cc;strokeColor=#d79b00;" vertex="1" parent="NtZi-PJopCHLtHp6JKRj-504">
          <mxGeometry width="330" height="140" as="geometry" />
        </mxCell>
        <mxCell id="NtZi-PJopCHLtHp6JKRj-437" value="&lt;font style=&quot;font-size: 12px;&quot;&gt;Agendamento 1&lt;/font&gt;" style="text;html=1;align=center;verticalAlign=middle;resizable=0;points=[];autosize=1;strokeColor=none;fillColor=none;fontSize=16;" vertex="1" parent="NtZi-PJopCHLtHp6JKRj-504">
          <mxGeometry width="110" height="30" as="geometry" />
        </mxCell>
        <mxCell id="NtZi-PJopCHLtHp6JKRj-460" value="" style="group" vertex="1" connectable="0" parent="NtZi-PJopCHLtHp6JKRj-504">
          <mxGeometry x="10" y="30" width="310" height="50" as="geometry" />
        </mxCell>
        <mxCell id="NtZi-PJopCHLtHp6JKRj-461" value="Serviço" style="rounded=0;whiteSpace=wrap;html=1;" vertex="1" parent="NtZi-PJopCHLtHp6JKRj-460">
          <mxGeometry width="56.36363636363638" height="20" as="geometry" />
        </mxCell>
        <mxCell id="NtZi-PJopCHLtHp6JKRj-462" value="Hora" style="rounded=0;whiteSpace=wrap;html=1;" vertex="1" parent="NtZi-PJopCHLtHp6JKRj-460">
          <mxGeometry x="65.76" width="64.24" height="20" as="geometry" />
        </mxCell>
        <mxCell id="NtZi-PJopCHLtHp6JKRj-463" value="Local de busca e devolução" style="rounded=0;whiteSpace=wrap;html=1;" vertex="1" parent="NtZi-PJopCHLtHp6JKRj-460">
          <mxGeometry x="140" width="170" height="20" as="geometry" />
        </mxCell>
        <mxCell id="NtZi-PJopCHLtHp6JKRj-464" value="..." style="rounded=0;whiteSpace=wrap;html=1;" vertex="1" parent="NtZi-PJopCHLtHp6JKRj-460">
          <mxGeometry y="30" width="310" height="20" as="geometry" />
        </mxCell>
        <mxCell id="NtZi-PJopCHLtHp6JKRj-467" value="" style="rounded=0;whiteSpace=wrap;html=1;fillColor=#f8cecc;strokeColor=#b85450;" vertex="1" parent="NtZi-PJopCHLtHp6JKRj-504">
          <mxGeometry x="10" y="91" width="310" height="39" as="geometry" />
        </mxCell>
        <mxCell id="NtZi-PJopCHLtHp6JKRj-476" value="Pet" style="text;html=1;align=center;verticalAlign=middle;resizable=0;points=[];autosize=1;strokeColor=none;fillColor=none;spacing=0;" vertex="1" parent="NtZi-PJopCHLtHp6JKRj-504">
          <mxGeometry x="9.999999999999773" y="95.5" width="40" height="30" as="geometry" />
        </mxCell>
        <mxCell id="NtZi-PJopCHLtHp6JKRj-477" value="Sexo" style="rounded=0;whiteSpace=wrap;html=1;" vertex="1" parent="NtZi-PJopCHLtHp6JKRj-504">
          <mxGeometry x="56" y="100.5" width="54" height="20" as="geometry" />
        </mxCell>
        <mxCell id="NtZi-PJopCHLtHp6JKRj-478" value="Porte" style="rounded=0;whiteSpace=wrap;html=1;" vertex="1" parent="NtZi-PJopCHLtHp6JKRj-504">
          <mxGeometry x="120" y="100.5" width="60" height="20" as="geometry" />
        </mxCell>
        <mxCell id="NtZi-PJopCHLtHp6JKRj-501" value="É castrado?" style="rounded=0;whiteSpace=wrap;html=1;" vertex="1" parent="NtZi-PJopCHLtHp6JKRj-504">
          <mxGeometry x="190" y="100.5" width="80" height="20" as="geometry" />
        </mxCell>
        <mxCell id="NtZi-PJopCHLtHp6JKRj-502" value="..." style="rounded=0;whiteSpace=wrap;html=1;" vertex="1" parent="NtZi-PJopCHLtHp6JKRj-504">
          <mxGeometry x="280" y="100.5" width="30" height="20" as="geometry" />
        </mxCell>
        <mxCell id="NtZi-PJopCHLtHp6JKRj-505" value="" style="group" vertex="1" connectable="0" parent="1">
          <mxGeometry x="-129.99999999999977" y="839" width="330" height="140" as="geometry" />
        </mxCell>
        <mxCell id="NtZi-PJopCHLtHp6JKRj-506" value="" style="rounded=0;whiteSpace=wrap;html=1;fillColor=#ffe6cc;strokeColor=#d79b00;" vertex="1" parent="NtZi-PJopCHLtHp6JKRj-505">
          <mxGeometry width="330" height="140" as="geometry" />
        </mxCell>
        <mxCell id="NtZi-PJopCHLtHp6JKRj-507" value="&lt;font style=&quot;font-size: 12px;&quot;&gt;Agendamento 2&lt;/font&gt;" style="text;html=1;align=center;verticalAlign=middle;resizable=0;points=[];autosize=1;strokeColor=none;fillColor=none;fontSize=16;" vertex="1" parent="NtZi-PJopCHLtHp6JKRj-505">
          <mxGeometry width="110" height="30" as="geometry" />
        </mxCell>
        <mxCell id="NtZi-PJopCHLtHp6JKRj-508" value="" style="group" vertex="1" connectable="0" parent="NtZi-PJopCHLtHp6JKRj-505">
          <mxGeometry x="10" y="30" width="310" height="50" as="geometry" />
        </mxCell>
        <mxCell id="NtZi-PJopCHLtHp6JKRj-509" value="Serviço" style="rounded=0;whiteSpace=wrap;html=1;" vertex="1" parent="NtZi-PJopCHLtHp6JKRj-508">
          <mxGeometry width="56.36363636363638" height="20" as="geometry" />
        </mxCell>
        <mxCell id="NtZi-PJopCHLtHp6JKRj-510" value="Hora" style="rounded=0;whiteSpace=wrap;html=1;" vertex="1" parent="NtZi-PJopCHLtHp6JKRj-508">
          <mxGeometry x="65.76" width="64.24" height="20" as="geometry" />
        </mxCell>
        <mxCell id="NtZi-PJopCHLtHp6JKRj-511" value="Local de busca e devolução" style="rounded=0;whiteSpace=wrap;html=1;" vertex="1" parent="NtZi-PJopCHLtHp6JKRj-508">
          <mxGeometry x="140" width="170" height="20" as="geometry" />
        </mxCell>
        <mxCell id="NtZi-PJopCHLtHp6JKRj-512" value="..." style="rounded=0;whiteSpace=wrap;html=1;" vertex="1" parent="NtZi-PJopCHLtHp6JKRj-508">
          <mxGeometry y="30" width="310" height="20" as="geometry" />
        </mxCell>
        <mxCell id="NtZi-PJopCHLtHp6JKRj-513" value="" style="rounded=0;whiteSpace=wrap;html=1;fillColor=#f8cecc;strokeColor=#b85450;" vertex="1" parent="NtZi-PJopCHLtHp6JKRj-505">
          <mxGeometry x="10" y="91" width="310" height="39" as="geometry" />
        </mxCell>
        <mxCell id="NtZi-PJopCHLtHp6JKRj-514" value="Pet" style="text;html=1;align=center;verticalAlign=middle;resizable=0;points=[];autosize=1;strokeColor=none;fillColor=none;spacing=0;" vertex="1" parent="NtZi-PJopCHLtHp6JKRj-505">
          <mxGeometry x="9.999999999999773" y="95.5" width="40" height="30" as="geometry" />
        </mxCell>
        <mxCell id="NtZi-PJopCHLtHp6JKRj-515" value="Sexo" style="rounded=0;whiteSpace=wrap;html=1;" vertex="1" parent="NtZi-PJopCHLtHp6JKRj-505">
          <mxGeometry x="56" y="100.5" width="54" height="20" as="geometry" />
        </mxCell>
        <mxCell id="NtZi-PJopCHLtHp6JKRj-516" value="Porte" style="rounded=0;whiteSpace=wrap;html=1;" vertex="1" parent="NtZi-PJopCHLtHp6JKRj-505">
          <mxGeometry x="120" y="100.5" width="60" height="20" as="geometry" />
        </mxCell>
        <mxCell id="NtZi-PJopCHLtHp6JKRj-517" value="É castrado?" style="rounded=0;whiteSpace=wrap;html=1;" vertex="1" parent="NtZi-PJopCHLtHp6JKRj-505">
          <mxGeometry x="190" y="100.5" width="80" height="20" as="geometry" />
        </mxCell>
        <mxCell id="NtZi-PJopCHLtHp6JKRj-518" value="..." style="rounded=0;whiteSpace=wrap;html=1;" vertex="1" parent="NtZi-PJopCHLtHp6JKRj-505">
          <mxGeometry x="280" y="100.5" width="30" height="20" as="geometry" />
        </mxCell>
        <mxCell id="NtZi-PJopCHLtHp6JKRj-519" value="..." style="rounded=0;whiteSpace=wrap;html=1;fillColor=#ffe6cc;strokeColor=#d79b00;" vertex="1" parent="1">
          <mxGeometry x="-40.670000000000016" y="989" width="151.35" height="20" as="geometry" />
        </mxCell>
        <mxCell id="NtZi-PJopCHLtHp6JKRj-521" value="" style="group;fillColor=#b0e3e6;strokeColor=#0e8088;container=0;" vertex="1" connectable="0" parent="1">
          <mxGeometry x="-990" y="633.5" width="370" height="380" as="geometry" />
        </mxCell>
        <mxCell id="NtZi-PJopCHLtHp6JKRj-522" value="Agendamentos s/ funcionário atribuído" style="text;html=1;align=center;verticalAlign=middle;resizable=0;points=[];autosize=1;strokeColor=none;fillColor=none;fontSize=16;" vertex="1" parent="1">
          <mxGeometry x="-989.9999999999998" y="633.5" width="300" height="30" as="geometry" />
        </mxCell>
        <mxCell id="NtZi-PJopCHLtHp6JKRj-523" value="" style="group" vertex="1" connectable="0" parent="1">
          <mxGeometry x="-969.9999999999998" y="673.5" width="330" height="310" as="geometry" />
        </mxCell>
        <mxCell id="NtZi-PJopCHLtHp6JKRj-528" value="" style="group" vertex="1" connectable="0" parent="1">
          <mxGeometry x="-969.9999999999998" y="673.5" width="330" height="140" as="geometry" />
        </mxCell>
        <mxCell id="NtZi-PJopCHLtHp6JKRj-529" value="" style="rounded=0;whiteSpace=wrap;html=1;fillColor=#ffe6cc;strokeColor=#d79b00;glass=0;shadow=0;" vertex="1" parent="NtZi-PJopCHLtHp6JKRj-528">
          <mxGeometry width="330" height="140" as="geometry" />
        </mxCell>
        <mxCell id="NtZi-PJopCHLtHp6JKRj-530" value="&lt;font style=&quot;font-size: 12px;&quot;&gt;Agendamento 1&lt;/font&gt;" style="text;html=1;align=center;verticalAlign=middle;resizable=0;points=[];autosize=1;strokeColor=none;fillColor=none;fontSize=16;" vertex="1" parent="NtZi-PJopCHLtHp6JKRj-528">
          <mxGeometry width="110" height="30" as="geometry" />
        </mxCell>
        <mxCell id="NtZi-PJopCHLtHp6JKRj-531" value="" style="group" vertex="1" connectable="0" parent="NtZi-PJopCHLtHp6JKRj-528">
          <mxGeometry x="10" y="30" width="310" height="50" as="geometry" />
        </mxCell>
        <mxCell id="NtZi-PJopCHLtHp6JKRj-532" value="Serviço" style="rounded=0;whiteSpace=wrap;html=1;" vertex="1" parent="NtZi-PJopCHLtHp6JKRj-531">
          <mxGeometry width="56.36363636363638" height="20" as="geometry" />
        </mxCell>
        <mxCell id="NtZi-PJopCHLtHp6JKRj-533" value="Hora" style="rounded=0;whiteSpace=wrap;html=1;" vertex="1" parent="NtZi-PJopCHLtHp6JKRj-531">
          <mxGeometry x="65.76" width="64.24" height="20" as="geometry" />
        </mxCell>
        <mxCell id="NtZi-PJopCHLtHp6JKRj-534" value="Local de busca e devolução" style="rounded=0;whiteSpace=wrap;html=1;" vertex="1" parent="NtZi-PJopCHLtHp6JKRj-531">
          <mxGeometry x="140" width="170" height="20" as="geometry" />
        </mxCell>
        <mxCell id="NtZi-PJopCHLtHp6JKRj-535" value="..." style="rounded=0;whiteSpace=wrap;html=1;" vertex="1" parent="NtZi-PJopCHLtHp6JKRj-531">
          <mxGeometry x="140" y="30" width="170" height="20" as="geometry" />
        </mxCell>
        <mxCell id="NtZi-PJopCHLtHp6JKRj-557" value="É recorrente?" style="rounded=0;whiteSpace=wrap;html=1;" vertex="1" parent="NtZi-PJopCHLtHp6JKRj-531">
          <mxGeometry y="30" width="130" height="20" as="geometry" />
        </mxCell>
        <mxCell id="NtZi-PJopCHLtHp6JKRj-536" value="" style="rounded=0;whiteSpace=wrap;html=1;fillColor=#f8cecc;strokeColor=#b85450;" vertex="1" parent="NtZi-PJopCHLtHp6JKRj-528">
          <mxGeometry x="10" y="91" width="310" height="39" as="geometry" />
        </mxCell>
        <mxCell id="NtZi-PJopCHLtHp6JKRj-537" value="Pet" style="text;html=1;align=center;verticalAlign=middle;resizable=0;points=[];autosize=1;strokeColor=none;fillColor=none;spacing=0;" vertex="1" parent="NtZi-PJopCHLtHp6JKRj-528">
          <mxGeometry x="9.999999999999773" y="95.5" width="40" height="30" as="geometry" />
        </mxCell>
        <mxCell id="NtZi-PJopCHLtHp6JKRj-538" value="Sexo" style="rounded=0;whiteSpace=wrap;html=1;" vertex="1" parent="NtZi-PJopCHLtHp6JKRj-528">
          <mxGeometry x="56" y="100.5" width="54" height="20" as="geometry" />
        </mxCell>
        <mxCell id="NtZi-PJopCHLtHp6JKRj-539" value="Porte" style="rounded=0;whiteSpace=wrap;html=1;" vertex="1" parent="NtZi-PJopCHLtHp6JKRj-528">
          <mxGeometry x="120" y="100.5" width="60" height="20" as="geometry" />
        </mxCell>
        <mxCell id="NtZi-PJopCHLtHp6JKRj-540" value="É castrado?" style="rounded=0;whiteSpace=wrap;html=1;" vertex="1" parent="NtZi-PJopCHLtHp6JKRj-528">
          <mxGeometry x="190" y="100.5" width="80" height="20" as="geometry" />
        </mxCell>
        <mxCell id="NtZi-PJopCHLtHp6JKRj-541" value="..." style="rounded=0;whiteSpace=wrap;html=1;" vertex="1" parent="NtZi-PJopCHLtHp6JKRj-528">
          <mxGeometry x="280" y="100.5" width="30" height="20" as="geometry" />
        </mxCell>
        <mxCell id="NtZi-PJopCHLtHp6JKRj-542" value="" style="group;rounded=0;glass=0;shadow=0;" vertex="1" connectable="0" parent="1">
          <mxGeometry x="-969.9999999999998" y="823.5" width="330" height="140" as="geometry" />
        </mxCell>
        <mxCell id="NtZi-PJopCHLtHp6JKRj-543" value="" style="rounded=0;whiteSpace=wrap;html=1;fillColor=#ffe6cc;strokeColor=#d79b00;" vertex="1" parent="NtZi-PJopCHLtHp6JKRj-542">
          <mxGeometry width="330" height="140" as="geometry" />
        </mxCell>
        <mxCell id="NtZi-PJopCHLtHp6JKRj-544" value="&lt;font style=&quot;font-size: 12px;&quot;&gt;Agendamento 2&lt;/font&gt;" style="text;html=1;align=center;verticalAlign=middle;resizable=0;points=[];autosize=1;strokeColor=none;fillColor=none;fontSize=16;" vertex="1" parent="NtZi-PJopCHLtHp6JKRj-542">
          <mxGeometry width="110" height="30" as="geometry" />
        </mxCell>
        <mxCell id="NtZi-PJopCHLtHp6JKRj-545" value="" style="group" vertex="1" connectable="0" parent="NtZi-PJopCHLtHp6JKRj-542">
          <mxGeometry x="10" y="30" width="310" height="50" as="geometry" />
        </mxCell>
        <mxCell id="NtZi-PJopCHLtHp6JKRj-546" value="Serviço" style="rounded=0;whiteSpace=wrap;html=1;" vertex="1" parent="NtZi-PJopCHLtHp6JKRj-545">
          <mxGeometry width="56.36363636363638" height="20" as="geometry" />
        </mxCell>
        <mxCell id="NtZi-PJopCHLtHp6JKRj-547" value="Hora" style="rounded=0;whiteSpace=wrap;html=1;" vertex="1" parent="NtZi-PJopCHLtHp6JKRj-545">
          <mxGeometry x="65.76" width="64.24" height="20" as="geometry" />
        </mxCell>
        <mxCell id="NtZi-PJopCHLtHp6JKRj-548" value="Local de busca e devolução" style="rounded=0;whiteSpace=wrap;html=1;" vertex="1" parent="NtZi-PJopCHLtHp6JKRj-545">
          <mxGeometry x="140" width="170" height="20" as="geometry" />
        </mxCell>
        <mxCell id="NtZi-PJopCHLtHp6JKRj-549" value="..." style="rounded=0;whiteSpace=wrap;html=1;" vertex="1" parent="NtZi-PJopCHLtHp6JKRj-545">
          <mxGeometry x="140" y="30" width="170" height="20" as="geometry" />
        </mxCell>
        <mxCell id="NtZi-PJopCHLtHp6JKRj-559" value="É recorrente?" style="rounded=0;whiteSpace=wrap;html=1;" vertex="1" parent="NtZi-PJopCHLtHp6JKRj-545">
          <mxGeometry y="30" width="130" height="20" as="geometry" />
        </mxCell>
        <mxCell id="NtZi-PJopCHLtHp6JKRj-550" value="" style="rounded=0;whiteSpace=wrap;html=1;fillColor=#f8cecc;strokeColor=#b85450;" vertex="1" parent="NtZi-PJopCHLtHp6JKRj-542">
          <mxGeometry x="10" y="91" width="310" height="39" as="geometry" />
        </mxCell>
        <mxCell id="NtZi-PJopCHLtHp6JKRj-551" value="Pet" style="text;html=1;align=center;verticalAlign=middle;resizable=0;points=[];autosize=1;strokeColor=none;fillColor=none;spacing=0;" vertex="1" parent="NtZi-PJopCHLtHp6JKRj-542">
          <mxGeometry x="9.999999999999773" y="95.5" width="40" height="30" as="geometry" />
        </mxCell>
        <mxCell id="NtZi-PJopCHLtHp6JKRj-552" value="Sexo" style="rounded=0;whiteSpace=wrap;html=1;" vertex="1" parent="NtZi-PJopCHLtHp6JKRj-542">
          <mxGeometry x="56" y="100.5" width="54" height="20" as="geometry" />
        </mxCell>
        <mxCell id="NtZi-PJopCHLtHp6JKRj-553" value="Porte" style="rounded=0;whiteSpace=wrap;html=1;" vertex="1" parent="NtZi-PJopCHLtHp6JKRj-542">
          <mxGeometry x="120" y="100.5" width="60" height="20" as="geometry" />
        </mxCell>
        <mxCell id="NtZi-PJopCHLtHp6JKRj-554" value="É castrado?" style="rounded=0;whiteSpace=wrap;html=1;" vertex="1" parent="NtZi-PJopCHLtHp6JKRj-542">
          <mxGeometry x="190" y="100.5" width="80" height="20" as="geometry" />
        </mxCell>
        <mxCell id="NtZi-PJopCHLtHp6JKRj-555" value="..." style="rounded=0;whiteSpace=wrap;html=1;" vertex="1" parent="NtZi-PJopCHLtHp6JKRj-542">
          <mxGeometry x="280" y="100.5" width="30" height="20" as="geometry" />
        </mxCell>
        <mxCell id="NtZi-PJopCHLtHp6JKRj-556" value="..." style="rounded=0;whiteSpace=wrap;html=1;fillColor=#ffe6cc;strokeColor=#d79b00;" vertex="1" parent="1">
          <mxGeometry x="-880.6700000000001" y="973.5" width="151.35" height="20" as="geometry" />
        </mxCell>
        <mxCell id="NtZi-PJopCHLtHp6JKRj-560" value="" style="group;fillColor=#d5e8d4;strokeColor=#82b366;container=0;" vertex="1" connectable="0" parent="1">
          <mxGeometry x="-570" y="633.5" width="370" height="380" as="geometry" />
        </mxCell>
        <mxCell id="NtZi-PJopCHLtHp6JKRj-561" value="Agendamentos c/ funcionário atribuído" style="text;html=1;align=center;verticalAlign=middle;resizable=0;points=[];autosize=1;strokeColor=none;fillColor=none;fontSize=16;" vertex="1" parent="1">
          <mxGeometry x="-569.9999999999998" y="633.5" width="300" height="30" as="geometry" />
        </mxCell>
        <mxCell id="NtZi-PJopCHLtHp6JKRj-562" value="" style="group" vertex="1" connectable="0" parent="1">
          <mxGeometry x="-549.9999999999998" y="673.5" width="330" height="310" as="geometry" />
        </mxCell>
        <mxCell id="NtZi-PJopCHLtHp6JKRj-563" value="" style="group" vertex="1" connectable="0" parent="1">
          <mxGeometry x="-549.9999999999998" y="673.5" width="330" height="140" as="geometry" />
        </mxCell>
        <mxCell id="NtZi-PJopCHLtHp6JKRj-564" value="" style="rounded=0;whiteSpace=wrap;html=1;fillColor=#ffe6cc;strokeColor=#d79b00;" vertex="1" parent="NtZi-PJopCHLtHp6JKRj-563">
          <mxGeometry width="330" height="140" as="geometry" />
        </mxCell>
        <mxCell id="NtZi-PJopCHLtHp6JKRj-565" value="&lt;font style=&quot;font-size: 12px;&quot;&gt;Agendamento 1&lt;/font&gt;" style="text;html=1;align=center;verticalAlign=middle;resizable=0;points=[];autosize=1;strokeColor=none;fillColor=none;fontSize=16;" vertex="1" parent="NtZi-PJopCHLtHp6JKRj-563">
          <mxGeometry width="110" height="30" as="geometry" />
        </mxCell>
        <mxCell id="NtZi-PJopCHLtHp6JKRj-566" value="" style="group" vertex="1" connectable="0" parent="NtZi-PJopCHLtHp6JKRj-563">
          <mxGeometry x="10" y="30" width="310" height="50" as="geometry" />
        </mxCell>
        <mxCell id="NtZi-PJopCHLtHp6JKRj-567" value="Serviço" style="rounded=0;whiteSpace=wrap;html=1;" vertex="1" parent="NtZi-PJopCHLtHp6JKRj-566">
          <mxGeometry width="56.36363636363638" height="20" as="geometry" />
        </mxCell>
        <mxCell id="NtZi-PJopCHLtHp6JKRj-568" value="Hora" style="rounded=0;whiteSpace=wrap;html=1;" vertex="1" parent="NtZi-PJopCHLtHp6JKRj-566">
          <mxGeometry x="65.76" width="64.24" height="20" as="geometry" />
        </mxCell>
        <mxCell id="NtZi-PJopCHLtHp6JKRj-569" value="Local de busca e devolução" style="rounded=0;whiteSpace=wrap;html=1;" vertex="1" parent="NtZi-PJopCHLtHp6JKRj-566">
          <mxGeometry x="140" width="170" height="20" as="geometry" />
        </mxCell>
        <mxCell id="NtZi-PJopCHLtHp6JKRj-570" value="..." style="rounded=0;whiteSpace=wrap;html=1;" vertex="1" parent="NtZi-PJopCHLtHp6JKRj-566">
          <mxGeometry x="140" y="30" width="170" height="20" as="geometry" />
        </mxCell>
        <mxCell id="NtZi-PJopCHLtHp6JKRj-571" value="É recorrente?" style="rounded=0;whiteSpace=wrap;html=1;" vertex="1" parent="NtZi-PJopCHLtHp6JKRj-566">
          <mxGeometry y="30" width="130" height="20" as="geometry" />
        </mxCell>
        <mxCell id="NtZi-PJopCHLtHp6JKRj-572" value="" style="rounded=0;whiteSpace=wrap;html=1;fillColor=#f8cecc;strokeColor=#b85450;" vertex="1" parent="NtZi-PJopCHLtHp6JKRj-563">
          <mxGeometry x="10" y="91" width="310" height="39" as="geometry" />
        </mxCell>
        <mxCell id="NtZi-PJopCHLtHp6JKRj-573" value="Pet" style="text;html=1;align=center;verticalAlign=middle;resizable=0;points=[];autosize=1;strokeColor=none;fillColor=none;spacing=0;" vertex="1" parent="NtZi-PJopCHLtHp6JKRj-563">
          <mxGeometry x="9.999999999999773" y="95.5" width="40" height="30" as="geometry" />
        </mxCell>
        <mxCell id="NtZi-PJopCHLtHp6JKRj-574" value="Sexo" style="rounded=0;whiteSpace=wrap;html=1;" vertex="1" parent="NtZi-PJopCHLtHp6JKRj-563">
          <mxGeometry x="56" y="100.5" width="54" height="20" as="geometry" />
        </mxCell>
        <mxCell id="NtZi-PJopCHLtHp6JKRj-575" value="Porte" style="rounded=0;whiteSpace=wrap;html=1;" vertex="1" parent="NtZi-PJopCHLtHp6JKRj-563">
          <mxGeometry x="120" y="100.5" width="60" height="20" as="geometry" />
        </mxCell>
        <mxCell id="NtZi-PJopCHLtHp6JKRj-576" value="É castrado?" style="rounded=0;whiteSpace=wrap;html=1;" vertex="1" parent="NtZi-PJopCHLtHp6JKRj-563">
          <mxGeometry x="190" y="100.5" width="80" height="20" as="geometry" />
        </mxCell>
        <mxCell id="NtZi-PJopCHLtHp6JKRj-577" value="..." style="rounded=0;whiteSpace=wrap;html=1;" vertex="1" parent="NtZi-PJopCHLtHp6JKRj-563">
          <mxGeometry x="280" y="100.5" width="30" height="20" as="geometry" />
        </mxCell>
        <mxCell id="NtZi-PJopCHLtHp6JKRj-578" value="" style="group" vertex="1" connectable="0" parent="1">
          <mxGeometry x="-549.9999999999998" y="823.5" width="330" height="140" as="geometry" />
        </mxCell>
        <mxCell id="NtZi-PJopCHLtHp6JKRj-579" value="" style="rounded=0;whiteSpace=wrap;html=1;fillColor=#ffe6cc;strokeColor=#d79b00;" vertex="1" parent="NtZi-PJopCHLtHp6JKRj-578">
          <mxGeometry width="330" height="140" as="geometry" />
        </mxCell>
        <mxCell id="NtZi-PJopCHLtHp6JKRj-580" value="&lt;font style=&quot;font-size: 12px;&quot;&gt;Agendamento 2&lt;/font&gt;" style="text;html=1;align=center;verticalAlign=middle;resizable=0;points=[];autosize=1;strokeColor=none;fillColor=none;fontSize=16;" vertex="1" parent="NtZi-PJopCHLtHp6JKRj-578">
          <mxGeometry width="110" height="30" as="geometry" />
        </mxCell>
        <mxCell id="NtZi-PJopCHLtHp6JKRj-581" value="" style="group" vertex="1" connectable="0" parent="NtZi-PJopCHLtHp6JKRj-578">
          <mxGeometry x="10" y="30" width="310" height="50" as="geometry" />
        </mxCell>
        <mxCell id="NtZi-PJopCHLtHp6JKRj-582" value="Serviço" style="rounded=0;whiteSpace=wrap;html=1;" vertex="1" parent="NtZi-PJopCHLtHp6JKRj-581">
          <mxGeometry width="56.36363636363638" height="20" as="geometry" />
        </mxCell>
        <mxCell id="NtZi-PJopCHLtHp6JKRj-583" value="Hora" style="rounded=0;whiteSpace=wrap;html=1;" vertex="1" parent="NtZi-PJopCHLtHp6JKRj-581">
          <mxGeometry x="65.76" width="64.24" height="20" as="geometry" />
        </mxCell>
        <mxCell id="NtZi-PJopCHLtHp6JKRj-584" value="Local de busca e devolução" style="rounded=0;whiteSpace=wrap;html=1;" vertex="1" parent="NtZi-PJopCHLtHp6JKRj-581">
          <mxGeometry x="140" width="170" height="20" as="geometry" />
        </mxCell>
        <mxCell id="NtZi-PJopCHLtHp6JKRj-585" value="..." style="rounded=0;whiteSpace=wrap;html=1;" vertex="1" parent="NtZi-PJopCHLtHp6JKRj-581">
          <mxGeometry x="140" y="30" width="170" height="20" as="geometry" />
        </mxCell>
        <mxCell id="NtZi-PJopCHLtHp6JKRj-586" value="É recorrente?" style="rounded=0;whiteSpace=wrap;html=1;" vertex="1" parent="NtZi-PJopCHLtHp6JKRj-581">
          <mxGeometry y="30" width="130" height="20" as="geometry" />
        </mxCell>
        <mxCell id="NtZi-PJopCHLtHp6JKRj-587" value="" style="rounded=0;whiteSpace=wrap;html=1;fillColor=#f8cecc;strokeColor=#b85450;" vertex="1" parent="NtZi-PJopCHLtHp6JKRj-578">
          <mxGeometry x="10" y="91" width="310" height="39" as="geometry" />
        </mxCell>
        <mxCell id="NtZi-PJopCHLtHp6JKRj-588" value="Pet" style="text;html=1;align=center;verticalAlign=middle;resizable=0;points=[];autosize=1;strokeColor=none;fillColor=none;spacing=0;" vertex="1" parent="NtZi-PJopCHLtHp6JKRj-578">
          <mxGeometry x="9.999999999999773" y="95.5" width="40" height="30" as="geometry" />
        </mxCell>
        <mxCell id="NtZi-PJopCHLtHp6JKRj-589" value="Sexo" style="rounded=0;whiteSpace=wrap;html=1;" vertex="1" parent="NtZi-PJopCHLtHp6JKRj-578">
          <mxGeometry x="56" y="100.5" width="54" height="20" as="geometry" />
        </mxCell>
        <mxCell id="NtZi-PJopCHLtHp6JKRj-590" value="Porte" style="rounded=0;whiteSpace=wrap;html=1;" vertex="1" parent="NtZi-PJopCHLtHp6JKRj-578">
          <mxGeometry x="120" y="100.5" width="60" height="20" as="geometry" />
        </mxCell>
        <mxCell id="NtZi-PJopCHLtHp6JKRj-591" value="É castrado?" style="rounded=0;whiteSpace=wrap;html=1;" vertex="1" parent="NtZi-PJopCHLtHp6JKRj-578">
          <mxGeometry x="190" y="100.5" width="80" height="20" as="geometry" />
        </mxCell>
        <mxCell id="NtZi-PJopCHLtHp6JKRj-592" value="..." style="rounded=0;whiteSpace=wrap;html=1;" vertex="1" parent="NtZi-PJopCHLtHp6JKRj-578">
          <mxGeometry x="280" y="100.5" width="30" height="20" as="geometry" />
        </mxCell>
        <mxCell id="NtZi-PJopCHLtHp6JKRj-593" value="..." style="rounded=0;whiteSpace=wrap;html=1;fillColor=#ffe6cc;strokeColor=#d79b00;" vertex="1" parent="1">
          <mxGeometry x="-460.6700000000001" y="973.5" width="151.35" height="20" as="geometry" />
        </mxCell>
        <mxCell id="NtZi-PJopCHLtHp6JKRj-594" value="Atribuição" style="shape=singleArrow;whiteSpace=wrap;html=1;arrowWidth=0.4444444444444457;arrowSize=0.3933333333333326;fillColor=#f5f5f5;strokeColor=#666666;fontColor=#333333;gradientColor=none;shadow=1;" vertex="1" parent="1">
          <mxGeometry x="-630" y="788" width="70" height="60" as="geometry" />
        </mxCell>
        <mxCell id="NtZi-PJopCHLtHp6JKRj-596" value="Formação" style="shape=singleArrow;whiteSpace=wrap;html=1;arrowWidth=0.4;arrowSize=0.4;fillColor=#f5f5f5;strokeColor=#666666;fontColor=#333333;gradientColor=none;shadow=1;rotation=0;" vertex="1" parent="1">
          <mxGeometry x="210" y="793.5" width="80" height="60" as="geometry" />
        </mxCell>
        <mxCell id="NtZi-PJopCHLtHp6JKRj-611" value="" style="group" vertex="1" connectable="0" parent="1">
          <mxGeometry x="-897" y="560" width="130" height="80" as="geometry" />
        </mxCell>
        <mxCell id="NtZi-PJopCHLtHp6JKRj-612" value="" style="group" vertex="1" connectable="0" parent="NtZi-PJopCHLtHp6JKRj-611">
          <mxGeometry y="17.999999999999993" width="130" height="60.00000000000001" as="geometry" />
        </mxCell>
        <mxCell id="NtZi-PJopCHLtHp6JKRj-598" value="" style="html=1;shadow=1;dashed=0;align=center;verticalAlign=middle;shape=mxgraph.arrows2.bendArrow;dy=10;dx=25;notch=0;arrowHead=44;rounded=1;rotation=-180;fillColor=#f5f5f5;fontColor=#333333;strokeColor=#666666;flipV=1;direction=south;" vertex="1" parent="NtZi-PJopCHLtHp6JKRj-612">
          <mxGeometry y="7.105427357601002e-15" width="130" height="60" as="geometry" />
        </mxCell>
        <mxCell id="NtZi-PJopCHLtHp6JKRj-609" value="&lt;span style=&quot;color: rgb(51, 51, 51);&quot;&gt;Sem funcionário&lt;/span&gt;" style="text;html=1;align=center;verticalAlign=middle;whiteSpace=wrap;rounded=0;" vertex="1" parent="NtZi-PJopCHLtHp6JKRj-612">
          <mxGeometry x="27.000000000000057" y="7.105427357601002e-15" width="94.81" height="20" as="geometry" />
        </mxCell>
        <mxCell id="NtZi-PJopCHLtHp6JKRj-613" value="" style="group" vertex="1" connectable="0" parent="1">
          <mxGeometry x="-420" y="560" width="130" height="80" as="geometry" />
        </mxCell>
        <mxCell id="NtZi-PJopCHLtHp6JKRj-614" value="" style="group;flipH=0;" vertex="1" connectable="0" parent="NtZi-PJopCHLtHp6JKRj-613">
          <mxGeometry y="17.999999999999993" width="130" height="60.00000000000001" as="geometry" />
        </mxCell>
        <mxCell id="NtZi-PJopCHLtHp6JKRj-615" value="" style="html=1;shadow=1;dashed=0;align=center;verticalAlign=middle;shape=mxgraph.arrows2.bendArrow;dy=10;dx=25;notch=0;arrowHead=44;rounded=1;rotation=-180;fillColor=#f5f5f5;fontColor=#333333;strokeColor=#666666;flipV=1;direction=south;flipH=1;" vertex="1" parent="NtZi-PJopCHLtHp6JKRj-614">
          <mxGeometry y="7.105427357601002e-15" width="130" height="60" as="geometry" />
        </mxCell>
        <mxCell id="NtZi-PJopCHLtHp6JKRj-616" value="&lt;span style=&quot;color: rgb(51, 51, 51);&quot;&gt;Com funcionário&lt;/span&gt;" style="text;html=1;align=center;verticalAlign=middle;whiteSpace=wrap;rounded=0;" vertex="1" parent="NtZi-PJopCHLtHp6JKRj-614">
          <mxGeometry x="10.500000000000057" y="7.105427357601002e-15" width="94.81" height="20" as="geometry" />
        </mxCell>
        <mxCell id="NtZi-PJopCHLtHp6JKRj-617" value="" style="shape=singleArrow;whiteSpace=wrap;html=1;arrowWidth=0.4444444444444457;arrowSize=0.3933333333333326;fillColor=#f5f5f5;strokeColor=#666666;fontColor=#333333;gradientColor=none;shadow=1;" vertex="1" parent="1">
          <mxGeometry x="-210.17000000000002" y="788" width="70" height="60" as="geometry" />
        </mxCell>
        <mxCell id="NtZi-PJopCHLtHp6JKRj-618" value="" style="shape=note2;boundedLbl=1;whiteSpace=wrap;html=1;size=24;verticalAlign=top;align=center;" vertex="1" parent="1">
          <mxGeometry x="274" y="300" width="186" height="70" as="geometry" />
        </mxCell>
        <mxCell id="NtZi-PJopCHLtHp6JKRj-619" value="Os grupos identificam com quais pets o funcionário deverá passear" style="text;html=1;align=center;verticalAlign=middle;whiteSpace=wrap;rounded=0;" vertex="1" parent="1">
          <mxGeometry x="284" y="306.25" width="146" height="57.5" as="geometry" />
        </mxCell>
        <mxCell id="NtZi-PJopCHLtHp6JKRj-620" value="" style="shape=note2;boundedLbl=1;whiteSpace=wrap;html=1;size=24;verticalAlign=top;align=center;" vertex="1" parent="1">
          <mxGeometry x="-153" y="530" width="186" height="70" as="geometry" />
        </mxCell>
        <mxCell id="NtZi-PJopCHLtHp6JKRj-621" value="Agendamentos associados ao funcionário para o dia determinado" style="text;html=1;align=center;verticalAlign=middle;whiteSpace=wrap;rounded=0;" vertex="1" parent="1">
          <mxGeometry x="-143" y="536.25" width="146" height="57.5" as="geometry" />
        </mxCell>
        <mxCell id="NtZi-PJopCHLtHp6JKRj-622" value="" style="shape=note2;boundedLbl=1;whiteSpace=wrap;html=1;size=24;verticalAlign=top;align=center;" vertex="1" parent="1">
          <mxGeometry x="-960" y="450" width="146" height="110" as="geometry" />
        </mxCell>
        <mxCell id="NtZi-PJopCHLtHp6JKRj-623" value="Será causado por agendamentos recorrentes (funcionários não são definidos automáticamente)" style="text;html=1;align=center;verticalAlign=middle;whiteSpace=wrap;rounded=0;" vertex="1" parent="1">
          <mxGeometry x="-950" y="460" width="120" height="90" as="geometry" />
        </mxCell>
        <mxCell id="NtZi-PJopCHLtHp6JKRj-624" value="" style="shape=note2;boundedLbl=1;whiteSpace=wrap;html=1;size=24;verticalAlign=top;align=center;" vertex="1" parent="1">
          <mxGeometry x="-780" y="160" width="170" height="70" as="geometry" />
        </mxCell>
        <mxCell id="NtZi-PJopCHLtHp6JKRj-625" value="Agendamentos com a opção de atribuir, ou não, um funcionário &lt;b&gt;durante&lt;/b&gt; o cadastro" style="text;html=1;align=center;verticalAlign=middle;whiteSpace=wrap;rounded=0;" vertex="1" parent="1">
          <mxGeometry x="-780" y="166.25" width="150" height="57.5" as="geometry" />
        </mxCell>
      </root>
    </mxGraphModel>
  </diagram>
</mxfile>
